<mxfile host="app.diagrams.net" agent="Mozilla/5.0 (Windows NT 10.0; Win64; x64; rv:130.0) Gecko/20100101 Firefox/130.0" version="24.7.14">
  <diagram name="Page-1" id="c4acf3e9-155e-7222-9cf6-157b1a14988f">
    <mxGraphModel dx="1105" dy="596" grid="1" gridSize="10" guides="1" tooltips="1" connect="1" arrows="1" fold="1" page="1" pageScale="1" pageWidth="850" pageHeight="1100" background="none" math="0" shadow="0">
      <root>
        <mxCell id="0" />
        <mxCell id="1" parent="0" />
        <mxCell id="uLzzSYT0SzyPOxnXmZJz-177" value="act" style="shape=umlFrame;whiteSpace=wrap;html=1;pointerEvents=0;recursiveResize=0;container=1;collapsible=0;width=160;" vertex="1" parent="1">
          <mxGeometry x="98" y="40" width="702" height="275" as="geometry" />
        </mxCell>
        <mxCell id="uLzzSYT0SzyPOxnXmZJz-180" value="&quot;Molvo&quot;" style="html=1;whiteSpace=wrap;" vertex="1" parent="uLzzSYT0SzyPOxnXmZJz-177">
          <mxGeometry y="220" width="110" height="55" as="geometry" />
        </mxCell>
        <mxCell id="uLzzSYT0SzyPOxnXmZJz-188" style="edgeStyle=orthogonalEdgeStyle;rounded=0;orthogonalLoop=1;jettySize=auto;html=1;entryX=0;entryY=0.5;entryDx=0;entryDy=0;" edge="1" parent="uLzzSYT0SzyPOxnXmZJz-177" source="uLzzSYT0SzyPOxnXmZJz-176" target="uLzzSYT0SzyPOxnXmZJz-181">
          <mxGeometry relative="1" as="geometry" />
        </mxCell>
        <mxCell id="uLzzSYT0SzyPOxnXmZJz-176" value="Register" style="html=1;align=center;verticalAlign=top;rounded=1;absoluteArcSize=1;arcSize=10;dashed=0;whiteSpace=wrap;" vertex="1" parent="uLzzSYT0SzyPOxnXmZJz-177">
          <mxGeometry x="132" y="140" width="80" height="40" as="geometry" />
        </mxCell>
        <mxCell id="uLzzSYT0SzyPOxnXmZJz-190" style="edgeStyle=orthogonalEdgeStyle;rounded=0;orthogonalLoop=1;jettySize=auto;html=1;entryX=0.5;entryY=1;entryDx=0;entryDy=0;" edge="1" parent="uLzzSYT0SzyPOxnXmZJz-177" source="uLzzSYT0SzyPOxnXmZJz-181" target="uLzzSYT0SzyPOxnXmZJz-182">
          <mxGeometry relative="1" as="geometry" />
        </mxCell>
        <mxCell id="uLzzSYT0SzyPOxnXmZJz-181" value="Publish" style="html=1;align=center;verticalAlign=top;rounded=1;absoluteArcSize=1;arcSize=10;dashed=0;whiteSpace=wrap;" vertex="1" parent="uLzzSYT0SzyPOxnXmZJz-177">
          <mxGeometry x="242" y="140" width="80" height="40" as="geometry" />
        </mxCell>
        <mxCell id="uLzzSYT0SzyPOxnXmZJz-191" style="edgeStyle=orthogonalEdgeStyle;rounded=0;orthogonalLoop=1;jettySize=auto;html=1;entryX=0.5;entryY=0;entryDx=0;entryDy=0;" edge="1" parent="uLzzSYT0SzyPOxnXmZJz-177" source="uLzzSYT0SzyPOxnXmZJz-192" target="uLzzSYT0SzyPOxnXmZJz-187">
          <mxGeometry relative="1" as="geometry">
            <Array as="points">
              <mxPoint x="412" y="80" />
              <mxPoint x="362" y="80" />
            </Array>
          </mxGeometry>
        </mxCell>
        <mxCell id="uLzzSYT0SzyPOxnXmZJz-182" value="Book" style="html=1;align=center;verticalAlign=top;rounded=1;absoluteArcSize=1;arcSize=10;dashed=0;whiteSpace=wrap;" vertex="1" parent="uLzzSYT0SzyPOxnXmZJz-177">
          <mxGeometry x="242" y="50" width="80" height="40" as="geometry" />
        </mxCell>
        <mxCell id="uLzzSYT0SzyPOxnXmZJz-206" style="edgeStyle=orthogonalEdgeStyle;rounded=0;orthogonalLoop=1;jettySize=auto;html=1;entryX=1;entryY=1;entryDx=0;entryDy=0;" edge="1" parent="uLzzSYT0SzyPOxnXmZJz-177" source="uLzzSYT0SzyPOxnXmZJz-184" target="uLzzSYT0SzyPOxnXmZJz-175">
          <mxGeometry relative="1" as="geometry">
            <Array as="points">
              <mxPoint x="692" y="247" />
              <mxPoint x="692" y="26" />
            </Array>
          </mxGeometry>
        </mxCell>
        <mxCell id="uLzzSYT0SzyPOxnXmZJz-184" value="Expel" style="html=1;align=center;verticalAlign=top;rounded=1;absoluteArcSize=1;arcSize=10;dashed=0;whiteSpace=wrap;" vertex="1" parent="uLzzSYT0SzyPOxnXmZJz-177">
          <mxGeometry x="582" y="227.5" width="80" height="40" as="geometry" />
        </mxCell>
        <mxCell id="uLzzSYT0SzyPOxnXmZJz-185" value="Ride" style="html=1;align=center;verticalAlign=top;rounded=1;absoluteArcSize=1;arcSize=10;dashed=0;whiteSpace=wrap;" vertex="1" parent="uLzzSYT0SzyPOxnXmZJz-177">
          <mxGeometry x="422" y="100" width="80" height="40" as="geometry" />
        </mxCell>
        <mxCell id="uLzzSYT0SzyPOxnXmZJz-194" style="edgeStyle=orthogonalEdgeStyle;rounded=0;orthogonalLoop=1;jettySize=auto;html=1;entryX=0;entryY=0.5;entryDx=0;entryDy=0;exitX=0.25;exitY=0;exitDx=0;exitDy=0;" edge="1" parent="uLzzSYT0SzyPOxnXmZJz-177" source="uLzzSYT0SzyPOxnXmZJz-187" target="uLzzSYT0SzyPOxnXmZJz-192">
          <mxGeometry relative="1" as="geometry">
            <Array as="points">
              <mxPoint x="362" y="60" />
              <mxPoint x="397" y="60" />
            </Array>
          </mxGeometry>
        </mxCell>
        <mxCell id="uLzzSYT0SzyPOxnXmZJz-187" value="Chat" style="html=1;align=center;verticalAlign=top;rounded=1;absoluteArcSize=1;arcSize=10;dashed=0;whiteSpace=wrap;" vertex="1" parent="uLzzSYT0SzyPOxnXmZJz-177">
          <mxGeometry x="322" y="100" width="80" height="40" as="geometry" />
        </mxCell>
        <mxCell id="uLzzSYT0SzyPOxnXmZJz-193" value="" style="edgeStyle=orthogonalEdgeStyle;rounded=0;orthogonalLoop=1;jettySize=auto;html=1;entryX=0.5;entryY=0;entryDx=0;entryDy=0;" edge="1" parent="uLzzSYT0SzyPOxnXmZJz-177" source="uLzzSYT0SzyPOxnXmZJz-182" target="uLzzSYT0SzyPOxnXmZJz-192">
          <mxGeometry relative="1" as="geometry">
            <mxPoint x="450" y="1470" as="sourcePoint" />
            <mxPoint x="510" y="1520" as="targetPoint" />
            <Array as="points">
              <mxPoint x="282" y="30" />
              <mxPoint x="412" y="30" />
            </Array>
          </mxGeometry>
        </mxCell>
        <mxCell id="uLzzSYT0SzyPOxnXmZJz-195" style="edgeStyle=orthogonalEdgeStyle;rounded=0;orthogonalLoop=1;jettySize=auto;html=1;" edge="1" parent="uLzzSYT0SzyPOxnXmZJz-177" source="uLzzSYT0SzyPOxnXmZJz-192" target="uLzzSYT0SzyPOxnXmZJz-183">
          <mxGeometry relative="1" as="geometry" />
        </mxCell>
        <mxCell id="uLzzSYT0SzyPOxnXmZJz-197" style="edgeStyle=orthogonalEdgeStyle;rounded=0;orthogonalLoop=1;jettySize=auto;html=1;exitX=1;exitY=1;exitDx=0;exitDy=0;entryX=0.5;entryY=0;entryDx=0;entryDy=0;" edge="1" parent="uLzzSYT0SzyPOxnXmZJz-177" source="uLzzSYT0SzyPOxnXmZJz-192" target="uLzzSYT0SzyPOxnXmZJz-185">
          <mxGeometry relative="1" as="geometry">
            <Array as="points">
              <mxPoint x="420" y="80" />
              <mxPoint x="462" y="80" />
            </Array>
          </mxGeometry>
        </mxCell>
        <mxCell id="uLzzSYT0SzyPOxnXmZJz-192" value="" style="rhombus;" vertex="1" parent="uLzzSYT0SzyPOxnXmZJz-177">
          <mxGeometry x="397" y="45" width="30" height="30" as="geometry" />
        </mxCell>
        <mxCell id="uLzzSYT0SzyPOxnXmZJz-201" style="edgeStyle=orthogonalEdgeStyle;rounded=0;orthogonalLoop=1;jettySize=auto;html=1;entryX=0;entryY=0.5;entryDx=0;entryDy=0;" edge="1" parent="uLzzSYT0SzyPOxnXmZJz-177" source="uLzzSYT0SzyPOxnXmZJz-183" target="uLzzSYT0SzyPOxnXmZJz-175">
          <mxGeometry relative="1" as="geometry" />
        </mxCell>
        <mxCell id="uLzzSYT0SzyPOxnXmZJz-183" value="Unbook" style="html=1;align=center;verticalAlign=top;rounded=1;absoluteArcSize=1;arcSize=10;dashed=0;whiteSpace=wrap;" vertex="1" parent="uLzzSYT0SzyPOxnXmZJz-177">
          <mxGeometry x="472" y="50" width="80" height="40" as="geometry" />
        </mxCell>
        <mxCell id="uLzzSYT0SzyPOxnXmZJz-179" value="Owner" style="html=1;whiteSpace=wrap;" vertex="1" parent="uLzzSYT0SzyPOxnXmZJz-177">
          <mxGeometry y="120" width="110" height="100" as="geometry" />
        </mxCell>
        <mxCell id="uLzzSYT0SzyPOxnXmZJz-175" value="" style="ellipse;html=1;shape=endState;fillColor=strokeColor;" vertex="1" parent="uLzzSYT0SzyPOxnXmZJz-177">
          <mxGeometry x="662" width="30" height="30" as="geometry" />
        </mxCell>
        <mxCell id="uLzzSYT0SzyPOxnXmZJz-174" value="" style="ellipse;fillColor=strokeColor;html=1;" vertex="1" parent="uLzzSYT0SzyPOxnXmZJz-177">
          <mxGeometry x="110" width="30" height="30" as="geometry" />
        </mxCell>
        <mxCell id="uLzzSYT0SzyPOxnXmZJz-189" style="edgeStyle=orthogonalEdgeStyle;rounded=0;orthogonalLoop=1;jettySize=auto;html=1;entryX=0;entryY=0.5;entryDx=0;entryDy=0;" edge="1" parent="uLzzSYT0SzyPOxnXmZJz-177" source="uLzzSYT0SzyPOxnXmZJz-174" target="uLzzSYT0SzyPOxnXmZJz-176">
          <mxGeometry relative="1" as="geometry">
            <Array as="points">
              <mxPoint x="125" y="160" />
            </Array>
          </mxGeometry>
        </mxCell>
        <mxCell id="uLzzSYT0SzyPOxnXmZJz-203" value="" style="rhombus;" vertex="1" parent="uLzzSYT0SzyPOxnXmZJz-177">
          <mxGeometry x="532" y="105" width="30" height="30" as="geometry" />
        </mxCell>
        <mxCell id="uLzzSYT0SzyPOxnXmZJz-198" style="edgeStyle=orthogonalEdgeStyle;rounded=0;orthogonalLoop=1;jettySize=auto;html=1;entryX=0;entryY=0.5;entryDx=0;entryDy=0;" edge="1" parent="uLzzSYT0SzyPOxnXmZJz-177" source="uLzzSYT0SzyPOxnXmZJz-185" target="uLzzSYT0SzyPOxnXmZJz-203">
          <mxGeometry relative="1" as="geometry">
            <Array as="points">
              <mxPoint x="532" y="120" />
            </Array>
          </mxGeometry>
        </mxCell>
        <mxCell id="uLzzSYT0SzyPOxnXmZJz-205" style="edgeStyle=orthogonalEdgeStyle;rounded=0;orthogonalLoop=1;jettySize=auto;html=1;exitX=0.5;exitY=0;exitDx=0;exitDy=0;entryX=0;entryY=1;entryDx=0;entryDy=0;" edge="1" parent="uLzzSYT0SzyPOxnXmZJz-177" source="uLzzSYT0SzyPOxnXmZJz-203" target="uLzzSYT0SzyPOxnXmZJz-175">
          <mxGeometry relative="1" as="geometry">
            <Array as="points">
              <mxPoint x="562" y="105" />
              <mxPoint x="562" y="80" />
              <mxPoint x="666" y="80" />
            </Array>
          </mxGeometry>
        </mxCell>
        <mxCell id="uLzzSYT0SzyPOxnXmZJz-164" value="loop" style="shape=umlFrame;whiteSpace=wrap;html=1;pointerEvents=0;" vertex="1" parent="1">
          <mxGeometry x="20" y="1310" width="700" height="190" as="geometry" />
        </mxCell>
        <mxCell id="uLzzSYT0SzyPOxnXmZJz-149" value="loop" style="shape=umlFrame;whiteSpace=wrap;html=1;pointerEvents=0;" vertex="1" parent="1">
          <mxGeometry x="20" y="930" width="700" height="360" as="geometry" />
        </mxCell>
        <mxCell id="uLzzSYT0SzyPOxnXmZJz-130" value="alt" style="shape=umlFrame;whiteSpace=wrap;html=1;pointerEvents=0;" vertex="1" parent="1">
          <mxGeometry x="40" y="1030" width="660" height="100" as="geometry" />
        </mxCell>
        <mxCell id="uLzzSYT0SzyPOxnXmZJz-9" value="&quot;Molvo&quot;" style="swimlane;fontStyle=1;align=center;verticalAlign=top;childLayout=stackLayout;horizontal=1;startSize=26;horizontalStack=0;resizeParent=1;resizeParentMax=0;resizeLast=0;collapsible=1;marginBottom=0;whiteSpace=wrap;html=1;" vertex="1" parent="1">
          <mxGeometry x="520" y="550" width="160" height="60" as="geometry" />
        </mxCell>
        <mxCell id="uLzzSYT0SzyPOxnXmZJz-10" value="+ field: type" style="text;strokeColor=none;fillColor=none;align=left;verticalAlign=top;spacingLeft=4;spacingRight=4;overflow=hidden;rotatable=0;points=[[0,0.5],[1,0.5]];portConstraint=eastwest;whiteSpace=wrap;html=1;" vertex="1" parent="uLzzSYT0SzyPOxnXmZJz-9">
          <mxGeometry y="26" width="160" height="26" as="geometry" />
        </mxCell>
        <mxCell id="uLzzSYT0SzyPOxnXmZJz-11" value="" style="line;strokeWidth=1;fillColor=none;align=left;verticalAlign=middle;spacingTop=-1;spacingLeft=3;spacingRight=3;rotatable=0;labelPosition=right;points=[];portConstraint=eastwest;strokeColor=inherit;" vertex="1" parent="uLzzSYT0SzyPOxnXmZJz-9">
          <mxGeometry y="52" width="160" height="8" as="geometry" />
        </mxCell>
        <mxCell id="uLzzSYT0SzyPOxnXmZJz-1" value="Person" style="swimlane;fontStyle=1;align=center;verticalAlign=top;childLayout=stackLayout;horizontal=1;startSize=26;horizontalStack=0;resizeParent=1;resizeParentMax=0;resizeLast=0;collapsible=1;marginBottom=0;whiteSpace=wrap;html=1;" vertex="1" parent="1">
          <mxGeometry x="320" y="430" width="160" height="78" as="geometry" />
        </mxCell>
        <mxCell id="uLzzSYT0SzyPOxnXmZJz-2" value="&lt;div&gt;+ name: String&lt;/div&gt;&lt;div&gt;+ email: String&lt;/div&gt;" style="text;strokeColor=none;fillColor=none;align=left;verticalAlign=top;spacingLeft=4;spacingRight=4;overflow=hidden;rotatable=0;points=[[0,0.5],[1,0.5]];portConstraint=eastwest;whiteSpace=wrap;html=1;" vertex="1" parent="uLzzSYT0SzyPOxnXmZJz-1">
          <mxGeometry y="26" width="160" height="44" as="geometry" />
        </mxCell>
        <mxCell id="uLzzSYT0SzyPOxnXmZJz-3" value="" style="line;strokeWidth=1;fillColor=none;align=left;verticalAlign=middle;spacingTop=-1;spacingLeft=3;spacingRight=3;rotatable=0;labelPosition=right;points=[];portConstraint=eastwest;strokeColor=inherit;" vertex="1" parent="uLzzSYT0SzyPOxnXmZJz-1">
          <mxGeometry y="70" width="160" height="8" as="geometry" />
        </mxCell>
        <mxCell id="uLzzSYT0SzyPOxnXmZJz-5" value="Passenger" style="swimlane;fontStyle=1;align=center;verticalAlign=top;childLayout=stackLayout;horizontal=1;startSize=26;horizontalStack=0;resizeParent=1;resizeParentMax=0;resizeLast=0;collapsible=1;marginBottom=0;whiteSpace=wrap;html=1;" vertex="1" parent="1">
          <mxGeometry x="120" y="550" width="160" height="60" as="geometry" />
        </mxCell>
        <mxCell id="uLzzSYT0SzyPOxnXmZJz-6" value="+ field: type" style="text;strokeColor=none;fillColor=none;align=left;verticalAlign=top;spacingLeft=4;spacingRight=4;overflow=hidden;rotatable=0;points=[[0,0.5],[1,0.5]];portConstraint=eastwest;whiteSpace=wrap;html=1;" vertex="1" parent="uLzzSYT0SzyPOxnXmZJz-5">
          <mxGeometry y="26" width="160" height="26" as="geometry" />
        </mxCell>
        <mxCell id="uLzzSYT0SzyPOxnXmZJz-7" value="" style="line;strokeWidth=1;fillColor=none;align=left;verticalAlign=middle;spacingTop=-1;spacingLeft=3;spacingRight=3;rotatable=0;labelPosition=right;points=[];portConstraint=eastwest;strokeColor=inherit;" vertex="1" parent="uLzzSYT0SzyPOxnXmZJz-5">
          <mxGeometry y="52" width="160" height="8" as="geometry" />
        </mxCell>
        <mxCell id="uLzzSYT0SzyPOxnXmZJz-13" value="CarOwner" style="swimlane;fontStyle=1;align=center;verticalAlign=top;childLayout=stackLayout;horizontal=1;startSize=26;horizontalStack=0;resizeParent=1;resizeParentMax=0;resizeLast=0;collapsible=1;marginBottom=0;whiteSpace=wrap;html=1;" vertex="1" parent="1">
          <mxGeometry x="320" y="590" width="160" height="60" as="geometry" />
        </mxCell>
        <mxCell id="uLzzSYT0SzyPOxnXmZJz-14" value="+ field: type" style="text;strokeColor=none;fillColor=none;align=left;verticalAlign=top;spacingLeft=4;spacingRight=4;overflow=hidden;rotatable=0;points=[[0,0.5],[1,0.5]];portConstraint=eastwest;whiteSpace=wrap;html=1;" vertex="1" parent="uLzzSYT0SzyPOxnXmZJz-13">
          <mxGeometry y="26" width="160" height="26" as="geometry" />
        </mxCell>
        <mxCell id="uLzzSYT0SzyPOxnXmZJz-15" value="" style="line;strokeWidth=1;fillColor=none;align=left;verticalAlign=middle;spacingTop=-1;spacingLeft=3;spacingRight=3;rotatable=0;labelPosition=right;points=[];portConstraint=eastwest;strokeColor=inherit;" vertex="1" parent="uLzzSYT0SzyPOxnXmZJz-13">
          <mxGeometry y="52" width="160" height="8" as="geometry" />
        </mxCell>
        <mxCell id="uLzzSYT0SzyPOxnXmZJz-18" value="Extends" style="endArrow=block;endSize=16;endFill=0;html=1;rounded=0;exitX=0.5;exitY=0;exitDx=0;exitDy=0;entryX=0.5;entryY=1;entryDx=0;entryDy=0;entryPerimeter=0;" edge="1" parent="1" source="uLzzSYT0SzyPOxnXmZJz-13" target="uLzzSYT0SzyPOxnXmZJz-3">
          <mxGeometry width="160" relative="1" as="geometry">
            <mxPoint x="400" y="580" as="sourcePoint" />
            <mxPoint x="400" y="516" as="targetPoint" />
          </mxGeometry>
        </mxCell>
        <mxCell id="uLzzSYT0SzyPOxnXmZJz-20" value="Extends" style="endArrow=block;endSize=16;endFill=0;html=1;rounded=0;exitX=0.5;exitY=0;exitDx=0;exitDy=0;entryX=0;entryY=0.5;entryDx=0;entryDy=0;" edge="1" parent="1" target="uLzzSYT0SzyPOxnXmZJz-2">
          <mxGeometry width="160" relative="1" as="geometry">
            <mxPoint x="199.5" y="550" as="sourcePoint" />
            <mxPoint x="199.5" y="476" as="targetPoint" />
          </mxGeometry>
        </mxCell>
        <mxCell id="uLzzSYT0SzyPOxnXmZJz-21" value="Vehicle" style="swimlane;fontStyle=1;align=center;verticalAlign=top;childLayout=stackLayout;horizontal=1;startSize=26;horizontalStack=0;resizeParent=1;resizeParentMax=0;resizeLast=0;collapsible=1;marginBottom=0;whiteSpace=wrap;html=1;" vertex="1" parent="1">
          <mxGeometry x="320" y="710" width="160" height="88" as="geometry" />
        </mxCell>
        <mxCell id="uLzzSYT0SzyPOxnXmZJz-22" value="&lt;div&gt;+ make: type&lt;/div&gt;&lt;div&gt;+ model: type&lt;br&gt;&lt;/div&gt;&lt;div&gt;+ register: type&lt;br&gt;&lt;/div&gt;" style="text;strokeColor=none;fillColor=none;align=left;verticalAlign=top;spacingLeft=4;spacingRight=4;overflow=hidden;rotatable=0;points=[[0,0.5],[1,0.5]];portConstraint=eastwest;whiteSpace=wrap;html=1;" vertex="1" parent="uLzzSYT0SzyPOxnXmZJz-21">
          <mxGeometry y="26" width="160" height="54" as="geometry" />
        </mxCell>
        <mxCell id="uLzzSYT0SzyPOxnXmZJz-23" value="" style="line;strokeWidth=1;fillColor=none;align=left;verticalAlign=middle;spacingTop=-1;spacingLeft=3;spacingRight=3;rotatable=0;labelPosition=right;points=[];portConstraint=eastwest;strokeColor=inherit;" vertex="1" parent="uLzzSYT0SzyPOxnXmZJz-21">
          <mxGeometry y="80" width="160" height="8" as="geometry" />
        </mxCell>
        <mxCell id="uLzzSYT0SzyPOxnXmZJz-24" value="1" style="endArrow=open;html=1;endSize=12;startArrow=diamondThin;startSize=14;startFill=1;edgeStyle=orthogonalEdgeStyle;align=left;verticalAlign=bottom;rounded=0;entryX=0.5;entryY=0;entryDx=0;entryDy=0;" edge="1" parent="1" target="uLzzSYT0SzyPOxnXmZJz-21">
          <mxGeometry x="-1" y="3" relative="1" as="geometry">
            <mxPoint x="400" y="650" as="sourcePoint" />
            <mxPoint x="500" y="670" as="targetPoint" />
          </mxGeometry>
        </mxCell>
        <mxCell id="uLzzSYT0SzyPOxnXmZJz-25" value="Ride" style="swimlane;fontStyle=1;align=center;verticalAlign=top;childLayout=stackLayout;horizontal=1;startSize=26;horizontalStack=0;resizeParent=1;resizeParentMax=0;resizeLast=0;collapsible=1;marginBottom=0;whiteSpace=wrap;html=1;" vertex="1" parent="1">
          <mxGeometry x="120" y="670" width="160" height="60" as="geometry" />
        </mxCell>
        <mxCell id="uLzzSYT0SzyPOxnXmZJz-26" value="+ field: type" style="text;strokeColor=none;fillColor=none;align=left;verticalAlign=top;spacingLeft=4;spacingRight=4;overflow=hidden;rotatable=0;points=[[0,0.5],[1,0.5]];portConstraint=eastwest;whiteSpace=wrap;html=1;" vertex="1" parent="uLzzSYT0SzyPOxnXmZJz-25">
          <mxGeometry y="26" width="160" height="26" as="geometry" />
        </mxCell>
        <mxCell id="uLzzSYT0SzyPOxnXmZJz-27" value="" style="line;strokeWidth=1;fillColor=none;align=left;verticalAlign=middle;spacingTop=-1;spacingLeft=3;spacingRight=3;rotatable=0;labelPosition=right;points=[];portConstraint=eastwest;strokeColor=inherit;" vertex="1" parent="uLzzSYT0SzyPOxnXmZJz-25">
          <mxGeometry y="52" width="160" height="8" as="geometry" />
        </mxCell>
        <mxCell id="uLzzSYT0SzyPOxnXmZJz-61" value="Rating" style="swimlane;fontStyle=1;align=center;verticalAlign=top;childLayout=stackLayout;horizontal=1;startSize=26;horizontalStack=0;resizeParent=1;resizeParentMax=0;resizeLast=0;collapsible=1;marginBottom=0;whiteSpace=wrap;html=1;" vertex="1" parent="1">
          <mxGeometry x="520" y="710" width="160" height="78" as="geometry" />
        </mxCell>
        <mxCell id="uLzzSYT0SzyPOxnXmZJz-62" value="&lt;div&gt;+ rating: int&lt;/div&gt;&lt;div&gt;+ comment: String&lt;br&gt;&lt;/div&gt;" style="text;strokeColor=none;fillColor=none;align=left;verticalAlign=top;spacingLeft=4;spacingRight=4;overflow=hidden;rotatable=0;points=[[0,0.5],[1,0.5]];portConstraint=eastwest;whiteSpace=wrap;html=1;" vertex="1" parent="uLzzSYT0SzyPOxnXmZJz-61">
          <mxGeometry y="26" width="160" height="44" as="geometry" />
        </mxCell>
        <mxCell id="uLzzSYT0SzyPOxnXmZJz-63" value="" style="line;strokeWidth=1;fillColor=none;align=left;verticalAlign=middle;spacingTop=-1;spacingLeft=3;spacingRight=3;rotatable=0;labelPosition=right;points=[];portConstraint=eastwest;strokeColor=inherit;" vertex="1" parent="uLzzSYT0SzyPOxnXmZJz-61">
          <mxGeometry y="70" width="160" height="8" as="geometry" />
        </mxCell>
        <mxCell id="uLzzSYT0SzyPOxnXmZJz-64" value="" style="endArrow=open;endFill=1;endSize=12;html=1;rounded=0;entryX=0.5;entryY=0;entryDx=0;entryDy=0;exitX=0.5;exitY=1;exitDx=0;exitDy=0;" edge="1" parent="1" source="uLzzSYT0SzyPOxnXmZJz-5" target="uLzzSYT0SzyPOxnXmZJz-25">
          <mxGeometry width="160" relative="1" as="geometry">
            <mxPoint x="200" y="620" as="sourcePoint" />
            <mxPoint x="230" y="790" as="targetPoint" />
          </mxGeometry>
        </mxCell>
        <mxCell id="uLzzSYT0SzyPOxnXmZJz-66" value="books" style="edgeLabel;html=1;align=center;verticalAlign=middle;resizable=0;points=[];" vertex="1" connectable="0" parent="uLzzSYT0SzyPOxnXmZJz-64">
          <mxGeometry x="-0.1149" y="4" relative="1" as="geometry">
            <mxPoint as="offset" />
          </mxGeometry>
        </mxCell>
        <mxCell id="uLzzSYT0SzyPOxnXmZJz-67" value="1" style="edgeLabel;html=1;align=center;verticalAlign=middle;resizable=0;points=[];" vertex="1" connectable="0" parent="uLzzSYT0SzyPOxnXmZJz-64">
          <mxGeometry x="-0.6437" y="5" relative="1" as="geometry">
            <mxPoint as="offset" />
          </mxGeometry>
        </mxCell>
        <mxCell id="uLzzSYT0SzyPOxnXmZJz-68" value="*" style="edgeLabel;html=1;align=center;verticalAlign=middle;resizable=0;points=[];" vertex="1" connectable="0" parent="uLzzSYT0SzyPOxnXmZJz-64">
          <mxGeometry x="0.7126" y="10" relative="1" as="geometry">
            <mxPoint as="offset" />
          </mxGeometry>
        </mxCell>
        <mxCell id="uLzzSYT0SzyPOxnXmZJz-73" value="" style="endArrow=open;endFill=1;endSize=12;html=1;rounded=0;entryX=0.5;entryY=0;entryDx=0;entryDy=0;exitX=0.5;exitY=0;exitDx=0;exitDy=0;" edge="1" parent="1" source="uLzzSYT0SzyPOxnXmZJz-5" target="uLzzSYT0SzyPOxnXmZJz-9">
          <mxGeometry width="160" relative="1" as="geometry">
            <mxPoint x="200" y="390" as="sourcePoint" />
            <mxPoint x="170" y="440" as="targetPoint" />
            <Array as="points">
              <mxPoint x="200" y="390" />
              <mxPoint x="600" y="390" />
            </Array>
          </mxGeometry>
        </mxCell>
        <mxCell id="uLzzSYT0SzyPOxnXmZJz-74" value="gives money" style="edgeLabel;html=1;align=center;verticalAlign=middle;resizable=0;points=[];" vertex="1" connectable="0" parent="uLzzSYT0SzyPOxnXmZJz-73">
          <mxGeometry x="-0.1149" y="4" relative="1" as="geometry">
            <mxPoint as="offset" />
          </mxGeometry>
        </mxCell>
        <mxCell id="uLzzSYT0SzyPOxnXmZJz-75" value="*" style="edgeLabel;html=1;align=center;verticalAlign=middle;resizable=0;points=[];" vertex="1" connectable="0" parent="uLzzSYT0SzyPOxnXmZJz-73">
          <mxGeometry x="-0.6437" y="5" relative="1" as="geometry">
            <mxPoint x="-12" y="98" as="offset" />
          </mxGeometry>
        </mxCell>
        <mxCell id="uLzzSYT0SzyPOxnXmZJz-76" value="1" style="edgeLabel;html=1;align=center;verticalAlign=middle;resizable=0;points=[];rotation=0;" vertex="1" connectable="0" parent="uLzzSYT0SzyPOxnXmZJz-73">
          <mxGeometry x="0.7126" y="10" relative="1" as="geometry">
            <mxPoint y="93" as="offset" />
          </mxGeometry>
        </mxCell>
        <mxCell id="uLzzSYT0SzyPOxnXmZJz-78" value="" style="endArrow=open;endFill=1;endSize=12;html=1;rounded=0;entryX=1;entryY=0.5;entryDx=0;entryDy=0;exitX=0.5;exitY=1;exitDx=0;exitDy=0;" edge="1" parent="1" target="uLzzSYT0SzyPOxnXmZJz-14">
          <mxGeometry width="160" relative="1" as="geometry">
            <mxPoint x="599.5" y="610" as="sourcePoint" />
            <mxPoint x="599.5" y="670" as="targetPoint" />
          </mxGeometry>
        </mxCell>
        <mxCell id="uLzzSYT0SzyPOxnXmZJz-79" value="gives money" style="edgeLabel;html=1;align=center;verticalAlign=middle;resizable=0;points=[];" vertex="1" connectable="0" parent="uLzzSYT0SzyPOxnXmZJz-78">
          <mxGeometry x="-0.1149" y="4" relative="1" as="geometry">
            <mxPoint x="-5" y="-2" as="offset" />
          </mxGeometry>
        </mxCell>
        <mxCell id="uLzzSYT0SzyPOxnXmZJz-80" value="1" style="edgeLabel;html=1;align=center;verticalAlign=middle;resizable=0;points=[];" vertex="1" connectable="0" parent="uLzzSYT0SzyPOxnXmZJz-78">
          <mxGeometry x="-0.6437" y="5" relative="1" as="geometry">
            <mxPoint x="17" y="5" as="offset" />
          </mxGeometry>
        </mxCell>
        <mxCell id="uLzzSYT0SzyPOxnXmZJz-81" value="*" style="edgeLabel;html=1;align=center;verticalAlign=middle;resizable=0;points=[];" vertex="1" connectable="0" parent="uLzzSYT0SzyPOxnXmZJz-78">
          <mxGeometry x="0.7126" y="10" relative="1" as="geometry">
            <mxPoint as="offset" />
          </mxGeometry>
        </mxCell>
        <mxCell id="uLzzSYT0SzyPOxnXmZJz-86" value="" style="endArrow=open;endFill=1;endSize=12;html=1;rounded=0;entryX=1;entryY=0.5;entryDx=0;entryDy=0;exitX=0;exitY=0.5;exitDx=0;exitDy=0;" edge="1" parent="1" source="uLzzSYT0SzyPOxnXmZJz-14" target="uLzzSYT0SzyPOxnXmZJz-26">
          <mxGeometry width="160" relative="1" as="geometry">
            <mxPoint x="240" y="650" as="sourcePoint" />
            <mxPoint x="240" y="710" as="targetPoint" />
          </mxGeometry>
        </mxCell>
        <mxCell id="uLzzSYT0SzyPOxnXmZJz-87" value="lists" style="edgeLabel;html=1;align=center;verticalAlign=middle;resizable=0;points=[];" vertex="1" connectable="0" parent="uLzzSYT0SzyPOxnXmZJz-86">
          <mxGeometry x="-0.1149" y="4" relative="1" as="geometry">
            <mxPoint as="offset" />
          </mxGeometry>
        </mxCell>
        <mxCell id="uLzzSYT0SzyPOxnXmZJz-88" value="1" style="edgeLabel;html=1;align=center;verticalAlign=middle;resizable=0;points=[];" vertex="1" connectable="0" parent="uLzzSYT0SzyPOxnXmZJz-86">
          <mxGeometry x="-0.6437" y="5" relative="1" as="geometry">
            <mxPoint as="offset" />
          </mxGeometry>
        </mxCell>
        <mxCell id="uLzzSYT0SzyPOxnXmZJz-89" value="*" style="edgeLabel;html=1;align=center;verticalAlign=middle;resizable=0;points=[];" vertex="1" connectable="0" parent="uLzzSYT0SzyPOxnXmZJz-86">
          <mxGeometry x="0.7126" y="10" relative="1" as="geometry">
            <mxPoint as="offset" />
          </mxGeometry>
        </mxCell>
        <mxCell id="uLzzSYT0SzyPOxnXmZJz-90" value="" style="endArrow=open;endFill=1;endSize=12;html=1;rounded=0;entryX=0.25;entryY=0;entryDx=0;entryDy=0;exitX=1;exitY=0.5;exitDx=0;exitDy=0;" edge="1" parent="1" source="uLzzSYT0SzyPOxnXmZJz-2" target="uLzzSYT0SzyPOxnXmZJz-9">
          <mxGeometry width="160" relative="1" as="geometry">
            <mxPoint x="500" y="500" as="sourcePoint" />
            <mxPoint x="250" y="720" as="targetPoint" />
          </mxGeometry>
        </mxCell>
        <mxCell id="uLzzSYT0SzyPOxnXmZJz-91" value="registers" style="edgeLabel;html=1;align=center;verticalAlign=middle;resizable=0;points=[];" vertex="1" connectable="0" parent="uLzzSYT0SzyPOxnXmZJz-90">
          <mxGeometry x="-0.1149" y="4" relative="1" as="geometry">
            <mxPoint as="offset" />
          </mxGeometry>
        </mxCell>
        <mxCell id="uLzzSYT0SzyPOxnXmZJz-92" value="*" style="edgeLabel;html=1;align=center;verticalAlign=middle;resizable=0;points=[];" vertex="1" connectable="0" parent="uLzzSYT0SzyPOxnXmZJz-90">
          <mxGeometry x="-0.6437" y="5" relative="1" as="geometry">
            <mxPoint as="offset" />
          </mxGeometry>
        </mxCell>
        <mxCell id="uLzzSYT0SzyPOxnXmZJz-93" value="1" style="edgeLabel;html=1;align=center;verticalAlign=middle;resizable=0;points=[];" vertex="1" connectable="0" parent="uLzzSYT0SzyPOxnXmZJz-90">
          <mxGeometry x="0.7126" y="10" relative="1" as="geometry">
            <mxPoint as="offset" />
          </mxGeometry>
        </mxCell>
        <mxCell id="uLzzSYT0SzyPOxnXmZJz-94" value="" style="endArrow=open;endFill=1;endSize=12;html=1;rounded=0;entryX=1;entryY=1;entryDx=0;entryDy=0;exitX=0;exitY=0.25;exitDx=0;exitDy=0;" edge="1" parent="1" source="uLzzSYT0SzyPOxnXmZJz-9" target="uLzzSYT0SzyPOxnXmZJz-1">
          <mxGeometry width="160" relative="1" as="geometry">
            <mxPoint x="260" y="670" as="sourcePoint" />
            <mxPoint x="260" y="730" as="targetPoint" />
          </mxGeometry>
        </mxCell>
        <mxCell id="uLzzSYT0SzyPOxnXmZJz-95" value="verifies" style="edgeLabel;html=1;align=center;verticalAlign=middle;resizable=0;points=[];" vertex="1" connectable="0" parent="uLzzSYT0SzyPOxnXmZJz-94">
          <mxGeometry x="-0.1149" y="4" relative="1" as="geometry">
            <mxPoint as="offset" />
          </mxGeometry>
        </mxCell>
        <mxCell id="uLzzSYT0SzyPOxnXmZJz-96" value="1" style="edgeLabel;html=1;align=center;verticalAlign=middle;resizable=0;points=[];" vertex="1" connectable="0" parent="uLzzSYT0SzyPOxnXmZJz-94">
          <mxGeometry x="-0.6437" y="5" relative="1" as="geometry">
            <mxPoint as="offset" />
          </mxGeometry>
        </mxCell>
        <mxCell id="uLzzSYT0SzyPOxnXmZJz-97" value="*" style="edgeLabel;html=1;align=center;verticalAlign=middle;resizable=0;points=[];" vertex="1" connectable="0" parent="uLzzSYT0SzyPOxnXmZJz-94">
          <mxGeometry x="0.7126" y="10" relative="1" as="geometry">
            <mxPoint as="offset" />
          </mxGeometry>
        </mxCell>
        <mxCell id="uLzzSYT0SzyPOxnXmZJz-99" value="" style="endArrow=open;endFill=1;endSize=12;html=1;rounded=0;entryX=0.75;entryY=1.25;entryDx=0;entryDy=0;exitX=0;exitY=0.5;exitDx=0;exitDy=0;entryPerimeter=0;" edge="1" parent="1" source="uLzzSYT0SzyPOxnXmZJz-10" target="uLzzSYT0SzyPOxnXmZJz-3">
          <mxGeometry width="160" relative="1" as="geometry">
            <mxPoint x="270" y="680" as="sourcePoint" />
            <mxPoint x="270" y="740" as="targetPoint" />
            <Array as="points">
              <mxPoint x="460" y="570" />
            </Array>
          </mxGeometry>
        </mxCell>
        <mxCell id="uLzzSYT0SzyPOxnXmZJz-100" value="expels" style="edgeLabel;html=1;align=center;verticalAlign=middle;resizable=0;points=[];" vertex="1" connectable="0" parent="uLzzSYT0SzyPOxnXmZJz-99">
          <mxGeometry x="-0.1149" y="4" relative="1" as="geometry">
            <mxPoint as="offset" />
          </mxGeometry>
        </mxCell>
        <mxCell id="uLzzSYT0SzyPOxnXmZJz-101" value="1" style="edgeLabel;html=1;align=center;verticalAlign=middle;resizable=0;points=[];" vertex="1" connectable="0" parent="uLzzSYT0SzyPOxnXmZJz-99">
          <mxGeometry x="-0.6437" y="5" relative="1" as="geometry">
            <mxPoint as="offset" />
          </mxGeometry>
        </mxCell>
        <mxCell id="uLzzSYT0SzyPOxnXmZJz-102" value="*" style="edgeLabel;html=1;align=center;verticalAlign=middle;resizable=0;points=[];" vertex="1" connectable="0" parent="uLzzSYT0SzyPOxnXmZJz-99">
          <mxGeometry x="0.7126" y="10" relative="1" as="geometry">
            <mxPoint as="offset" />
          </mxGeometry>
        </mxCell>
        <mxCell id="uLzzSYT0SzyPOxnXmZJz-103" value="" style="endArrow=open;endFill=1;endSize=12;html=1;rounded=0;exitX=1.019;exitY=0.154;exitDx=0;exitDy=0;exitPerimeter=0;entryX=1;entryY=0.5;entryDx=0;entryDy=0;" edge="1" parent="1" source="uLzzSYT0SzyPOxnXmZJz-1" target="uLzzSYT0SzyPOxnXmZJz-62">
          <mxGeometry width="160" relative="1" as="geometry">
            <mxPoint x="730" y="490" as="sourcePoint" />
            <mxPoint x="720" y="750" as="targetPoint" />
            <Array as="points">
              <mxPoint x="720" y="442" />
              <mxPoint x="720" y="758" />
            </Array>
          </mxGeometry>
        </mxCell>
        <mxCell id="uLzzSYT0SzyPOxnXmZJz-104" value="creates (rates)" style="edgeLabel;html=1;align=center;verticalAlign=middle;resizable=0;points=[];" vertex="1" connectable="0" parent="uLzzSYT0SzyPOxnXmZJz-103">
          <mxGeometry x="-0.1149" y="4" relative="1" as="geometry">
            <mxPoint as="offset" />
          </mxGeometry>
        </mxCell>
        <mxCell id="uLzzSYT0SzyPOxnXmZJz-105" value="1" style="edgeLabel;html=1;align=center;verticalAlign=middle;resizable=0;points=[];" vertex="1" connectable="0" parent="uLzzSYT0SzyPOxnXmZJz-103">
          <mxGeometry x="-0.6437" y="5" relative="1" as="geometry">
            <mxPoint x="-90" y="-6" as="offset" />
          </mxGeometry>
        </mxCell>
        <mxCell id="uLzzSYT0SzyPOxnXmZJz-106" value="*" style="edgeLabel;html=1;align=center;verticalAlign=middle;resizable=0;points=[];" vertex="1" connectable="0" parent="uLzzSYT0SzyPOxnXmZJz-103">
          <mxGeometry x="0.7126" y="10" relative="1" as="geometry">
            <mxPoint as="offset" />
          </mxGeometry>
        </mxCell>
        <mxCell id="uLzzSYT0SzyPOxnXmZJz-107" value="" style="endArrow=open;endFill=1;endSize=12;html=1;rounded=0;exitX=0.75;exitY=1;exitDx=0;exitDy=0;" edge="1" parent="1" source="uLzzSYT0SzyPOxnXmZJz-9">
          <mxGeometry width="160" relative="1" as="geometry">
            <mxPoint x="290" y="700" as="sourcePoint" />
            <mxPoint x="640" y="705" as="targetPoint" />
          </mxGeometry>
        </mxCell>
        <mxCell id="uLzzSYT0SzyPOxnXmZJz-108" value="follows up" style="edgeLabel;html=1;align=center;verticalAlign=middle;resizable=0;points=[];" vertex="1" connectable="0" parent="uLzzSYT0SzyPOxnXmZJz-107">
          <mxGeometry x="-0.1149" y="4" relative="1" as="geometry">
            <mxPoint as="offset" />
          </mxGeometry>
        </mxCell>
        <mxCell id="uLzzSYT0SzyPOxnXmZJz-109" value="1" style="edgeLabel;html=1;align=center;verticalAlign=middle;resizable=0;points=[];" vertex="1" connectable="0" parent="uLzzSYT0SzyPOxnXmZJz-107">
          <mxGeometry x="-0.6437" y="5" relative="1" as="geometry">
            <mxPoint as="offset" />
          </mxGeometry>
        </mxCell>
        <mxCell id="uLzzSYT0SzyPOxnXmZJz-110" value="*" style="edgeLabel;html=1;align=center;verticalAlign=middle;resizable=0;points=[];" vertex="1" connectable="0" parent="uLzzSYT0SzyPOxnXmZJz-107">
          <mxGeometry x="0.7126" y="10" relative="1" as="geometry">
            <mxPoint as="offset" />
          </mxGeometry>
        </mxCell>
        <mxCell id="uLzzSYT0SzyPOxnXmZJz-112" value=": Interface" style="shape=umlLifeline;whiteSpace=wrap;html=1;container=1;dropTarget=0;collapsible=0;recursiveResize=0;outlineConnect=0;portConstraint=eastwest;newEdgeStyle={&quot;curved&quot;:0,&quot;rounded&quot;:0};points=[[0,0,0,0,5],[0,1,0,0,-5],[1,0,0,0,5],[1,1,0,0,-5]];perimeter=rectanglePerimeter;targetShapes=umlLifeline;participant=label;" vertex="1" parent="1">
          <mxGeometry x="200" y="870" width="100" height="630" as="geometry" />
        </mxCell>
        <mxCell id="uLzzSYT0SzyPOxnXmZJz-115" value="" style="html=1;points=[[0,0,0,0,5],[0,1,0,0,-5],[1,0,0,0,5],[1,1,0,0,-5]];perimeter=orthogonalPerimeter;outlineConnect=0;targetShapes=umlLifeline;portConstraint=eastwest;newEdgeStyle={&quot;curved&quot;:0,&quot;rounded&quot;:0};" vertex="1" parent="uLzzSYT0SzyPOxnXmZJz-112">
          <mxGeometry x="45" y="60" width="10" height="550" as="geometry" />
        </mxCell>
        <mxCell id="uLzzSYT0SzyPOxnXmZJz-113" value=": Database" style="shape=umlLifeline;perimeter=lifelinePerimeter;whiteSpace=wrap;html=1;container=1;dropTarget=0;collapsible=0;recursiveResize=0;outlineConnect=0;portConstraint=eastwest;newEdgeStyle={&quot;curved&quot;:0,&quot;rounded&quot;:0};" vertex="1" parent="1">
          <mxGeometry x="325" y="870" width="100" height="630" as="geometry" />
        </mxCell>
        <mxCell id="uLzzSYT0SzyPOxnXmZJz-116" value="" style="html=1;points=[[0,0,0,0,5],[0,1,0,0,-5],[1,0,0,0,5],[1,1,0,0,-5]];perimeter=orthogonalPerimeter;outlineConnect=0;targetShapes=umlLifeline;portConstraint=eastwest;newEdgeStyle={&quot;curved&quot;:0,&quot;rounded&quot;:0};" vertex="1" parent="uLzzSYT0SzyPOxnXmZJz-113">
          <mxGeometry x="45" y="60" width="10" height="550" as="geometry" />
        </mxCell>
        <mxCell id="uLzzSYT0SzyPOxnXmZJz-114" value=": Bank" style="shape=umlLifeline;perimeter=lifelinePerimeter;whiteSpace=wrap;html=1;container=1;dropTarget=0;collapsible=0;recursiveResize=0;outlineConnect=0;portConstraint=eastwest;newEdgeStyle={&quot;curved&quot;:0,&quot;rounded&quot;:0};" vertex="1" parent="1">
          <mxGeometry x="580" y="870" width="100" height="630" as="geometry" />
        </mxCell>
        <mxCell id="uLzzSYT0SzyPOxnXmZJz-117" value="" style="html=1;points=[[0,0,0,0,5],[0,1,0,0,-5],[1,0,0,0,5],[1,1,0,0,-5]];perimeter=orthogonalPerimeter;outlineConnect=0;targetShapes=umlLifeline;portConstraint=eastwest;newEdgeStyle={&quot;curved&quot;:0,&quot;rounded&quot;:0};" vertex="1" parent="uLzzSYT0SzyPOxnXmZJz-114">
          <mxGeometry x="45" y="450" width="10" height="160" as="geometry" />
        </mxCell>
        <mxCell id="uLzzSYT0SzyPOxnXmZJz-119" value="" style="shape=umlLifeline;perimeter=lifelinePerimeter;whiteSpace=wrap;html=1;container=1;dropTarget=0;collapsible=0;recursiveResize=0;outlineConnect=0;portConstraint=eastwest;newEdgeStyle={&quot;curved&quot;:0,&quot;rounded&quot;:0};participant=umlActor;" vertex="1" parent="1">
          <mxGeometry x="115" y="870" width="20" height="630" as="geometry" />
        </mxCell>
        <mxCell id="uLzzSYT0SzyPOxnXmZJz-120" value="" style="html=1;points=[[0,0,0,0,5],[0,1,0,0,-5],[1,0,0,0,5],[1,1,0,0,-5]];perimeter=orthogonalPerimeter;outlineConnect=0;targetShapes=umlLifeline;portConstraint=eastwest;newEdgeStyle={&quot;curved&quot;:0,&quot;rounded&quot;:0};" vertex="1" parent="uLzzSYT0SzyPOxnXmZJz-119">
          <mxGeometry x="5" y="60" width="10" height="550" as="geometry" />
        </mxCell>
        <mxCell id="uLzzSYT0SzyPOxnXmZJz-121" value="search rides" style="endArrow=block;endFill=1;html=1;edgeStyle=orthogonalEdgeStyle;align=left;verticalAlign=top;rounded=0;" edge="1" parent="1">
          <mxGeometry x="-0.5652" y="20" relative="1" as="geometry">
            <mxPoint x="130" y="950" as="sourcePoint" />
            <mxPoint x="245" y="950" as="targetPoint" />
            <mxPoint as="offset" />
          </mxGeometry>
        </mxCell>
        <mxCell id="uLzzSYT0SzyPOxnXmZJz-125" value="get rides" style="endArrow=block;endFill=1;html=1;edgeStyle=orthogonalEdgeStyle;align=left;verticalAlign=top;rounded=0;" edge="1" parent="1">
          <mxGeometry x="-0.5652" y="20" relative="1" as="geometry">
            <mxPoint x="255" y="960" as="sourcePoint" />
            <mxPoint x="370" y="960" as="targetPoint" />
            <mxPoint as="offset" />
          </mxGeometry>
        </mxCell>
        <mxCell id="uLzzSYT0SzyPOxnXmZJz-126" value="return rides" style="html=1;verticalAlign=bottom;endArrow=open;dashed=1;endSize=8;curved=0;rounded=0;" edge="1" parent="1" target="uLzzSYT0SzyPOxnXmZJz-115">
          <mxGeometry x="0.0435" relative="1" as="geometry">
            <mxPoint x="370" y="980" as="sourcePoint" />
            <mxPoint x="290" y="980" as="targetPoint" />
            <mxPoint as="offset" />
          </mxGeometry>
        </mxCell>
        <mxCell id="uLzzSYT0SzyPOxnXmZJz-127" value="show rides" style="html=1;verticalAlign=bottom;endArrow=open;dashed=1;endSize=8;curved=0;rounded=0;" edge="1" parent="1">
          <mxGeometry x="0.0435" relative="1" as="geometry">
            <mxPoint x="245" y="989.66" as="sourcePoint" />
            <mxPoint x="130" y="989.66" as="targetPoint" />
            <mxPoint as="offset" />
          </mxGeometry>
        </mxCell>
        <mxCell id="uLzzSYT0SzyPOxnXmZJz-128" value="book ride" style="endArrow=block;endFill=1;html=1;edgeStyle=orthogonalEdgeStyle;align=left;verticalAlign=top;rounded=0;" edge="1" parent="1">
          <mxGeometry x="-0.5652" y="20" relative="1" as="geometry">
            <mxPoint x="130" y="1010" as="sourcePoint" />
            <mxPoint x="245" y="1010" as="targetPoint" />
            <mxPoint as="offset" />
          </mxGeometry>
        </mxCell>
        <mxCell id="uLzzSYT0SzyPOxnXmZJz-129" value="verify" style="endArrow=block;endFill=1;html=1;edgeStyle=orthogonalEdgeStyle;align=left;verticalAlign=top;rounded=0;" edge="1" parent="1">
          <mxGeometry x="-0.5652" y="20" relative="1" as="geometry">
            <mxPoint x="255" y="1019.66" as="sourcePoint" />
            <mxPoint x="370" y="1019.66" as="targetPoint" />
            <mxPoint as="offset" />
          </mxGeometry>
        </mxCell>
        <mxCell id="uLzzSYT0SzyPOxnXmZJz-131" value="If verified" style="text;html=1;align=center;verticalAlign=middle;resizable=0;points=[];autosize=1;strokeColor=none;fillColor=none;" vertex="1" parent="1">
          <mxGeometry x="40" y="1060" width="70" height="30" as="geometry" />
        </mxCell>
        <mxCell id="uLzzSYT0SzyPOxnXmZJz-132" value="else" style="text;html=1;align=center;verticalAlign=middle;resizable=0;points=[];autosize=1;strokeColor=none;fillColor=none;" vertex="1" parent="1">
          <mxGeometry x="48" y="1090" width="50" height="30" as="geometry" />
        </mxCell>
        <mxCell id="uLzzSYT0SzyPOxnXmZJz-133" value="" style="endArrow=none;dashed=1;html=1;rounded=0;exitX=-0.123;exitY=-0.172;exitDx=0;exitDy=0;exitPerimeter=0;entryX=0.99;entryY=0.541;entryDx=0;entryDy=0;entryPerimeter=0;" edge="1" parent="1" source="uLzzSYT0SzyPOxnXmZJz-132" target="uLzzSYT0SzyPOxnXmZJz-130">
          <mxGeometry width="50" height="50" relative="1" as="geometry">
            <mxPoint x="210" y="1150" as="sourcePoint" />
            <mxPoint x="260" y="1100" as="targetPoint" />
          </mxGeometry>
        </mxCell>
        <mxCell id="uLzzSYT0SzyPOxnXmZJz-134" value="return" style="html=1;verticalAlign=bottom;endArrow=open;dashed=1;endSize=8;curved=0;rounded=0;" edge="1" parent="1">
          <mxGeometry x="0.0435" relative="1" as="geometry">
            <mxPoint x="370" y="1050" as="sourcePoint" />
            <mxPoint x="255" y="1050" as="targetPoint" />
            <mxPoint as="offset" />
          </mxGeometry>
        </mxCell>
        <mxCell id="uLzzSYT0SzyPOxnXmZJz-135" value="ask for more" style="endArrow=block;endFill=1;html=1;edgeStyle=orthogonalEdgeStyle;align=left;verticalAlign=top;rounded=0;" edge="1" parent="1">
          <mxGeometry x="0.4783" y="-20" relative="1" as="geometry">
            <mxPoint x="244.99999999999955" y="1070" as="sourcePoint" />
            <mxPoint x="129.99999999999955" y="1070" as="targetPoint" />
            <mxPoint as="offset" />
          </mxGeometry>
        </mxCell>
        <mxCell id="uLzzSYT0SzyPOxnXmZJz-136" value="return" style="html=1;verticalAlign=bottom;endArrow=open;dashed=1;endSize=8;curved=0;rounded=0;" edge="1" parent="1">
          <mxGeometry x="0.0435" relative="1" as="geometry">
            <mxPoint x="370" y="1104.6599999999999" as="sourcePoint" />
            <mxPoint x="255" y="1104.6599999999999" as="targetPoint" />
            <mxPoint as="offset" />
          </mxGeometry>
        </mxCell>
        <mxCell id="uLzzSYT0SzyPOxnXmZJz-137" value="exit" style="html=1;verticalAlign=bottom;endArrow=open;dashed=1;endSize=8;curved=0;rounded=0;" edge="1" parent="1">
          <mxGeometry x="0.0435" relative="1" as="geometry">
            <mxPoint x="245" y="1119.6599999999999" as="sourcePoint" />
            <mxPoint x="130" y="1119.6599999999999" as="targetPoint" />
            <mxPoint as="offset" />
          </mxGeometry>
        </mxCell>
        <mxCell id="uLzzSYT0SzyPOxnXmZJz-138" value="yes/no" style="endArrow=block;endFill=1;html=1;edgeStyle=orthogonalEdgeStyle;align=left;verticalAlign=top;rounded=0;" edge="1" parent="1">
          <mxGeometry x="-0.5652" y="20" relative="1" as="geometry">
            <mxPoint x="130" y="1150" as="sourcePoint" />
            <mxPoint x="245" y="1150" as="targetPoint" />
            <mxPoint as="offset" />
          </mxGeometry>
        </mxCell>
        <mxCell id="uLzzSYT0SzyPOxnXmZJz-144" value="alt" style="shape=umlFrame;whiteSpace=wrap;html=1;pointerEvents=0;" vertex="1" parent="1">
          <mxGeometry x="40" y="1170" width="660" height="100" as="geometry" />
        </mxCell>
        <mxCell id="uLzzSYT0SzyPOxnXmZJz-145" value="If yes" style="text;html=1;align=center;verticalAlign=middle;resizable=0;points=[];autosize=1;strokeColor=none;fillColor=none;" vertex="1" parent="1">
          <mxGeometry x="50" y="1200" width="50" height="30" as="geometry" />
        </mxCell>
        <mxCell id="uLzzSYT0SzyPOxnXmZJz-146" value="else" style="text;html=1;align=center;verticalAlign=middle;resizable=0;points=[];autosize=1;strokeColor=none;fillColor=none;" vertex="1" parent="1">
          <mxGeometry x="48" y="1230" width="50" height="30" as="geometry" />
        </mxCell>
        <mxCell id="uLzzSYT0SzyPOxnXmZJz-147" value="" style="endArrow=none;dashed=1;html=1;rounded=0;exitX=-0.123;exitY=-0.172;exitDx=0;exitDy=0;exitPerimeter=0;entryX=0.99;entryY=0.541;entryDx=0;entryDy=0;entryPerimeter=0;" edge="1" parent="1" source="uLzzSYT0SzyPOxnXmZJz-146" target="uLzzSYT0SzyPOxnXmZJz-144">
          <mxGeometry width="50" height="50" relative="1" as="geometry">
            <mxPoint x="210" y="1290" as="sourcePoint" />
            <mxPoint x="260" y="1240" as="targetPoint" />
          </mxGeometry>
        </mxCell>
        <mxCell id="uLzzSYT0SzyPOxnXmZJz-152" value="loop" style="html=1;verticalAlign=bottom;endArrow=open;dashed=1;endSize=8;curved=0;rounded=0;" edge="1" parent="1">
          <mxGeometry x="0.0435" relative="1" as="geometry">
            <mxPoint x="245" y="1250" as="sourcePoint" />
            <mxPoint x="130" y="1250" as="targetPoint" />
            <mxPoint as="offset" />
          </mxGeometry>
        </mxCell>
        <mxCell id="uLzzSYT0SzyPOxnXmZJz-153" value="payment details" style="endArrow=block;endFill=1;html=1;edgeStyle=orthogonalEdgeStyle;align=left;verticalAlign=top;rounded=0;" edge="1" parent="1">
          <mxGeometry x="-0.6522" y="20" relative="1" as="geometry">
            <mxPoint x="130" y="1350" as="sourcePoint" />
            <mxPoint x="245" y="1350" as="targetPoint" />
            <mxPoint as="offset" />
          </mxGeometry>
        </mxCell>
        <mxCell id="uLzzSYT0SzyPOxnXmZJz-154" value="verify " style="endArrow=block;endFill=1;html=1;edgeStyle=orthogonalEdgeStyle;align=left;verticalAlign=top;rounded=0;" edge="1" parent="1">
          <mxGeometry x="-0.6522" y="20" relative="1" as="geometry">
            <mxPoint x="255" y="1360" as="sourcePoint" />
            <mxPoint x="370" y="1360" as="targetPoint" />
            <mxPoint as="offset" />
          </mxGeometry>
        </mxCell>
        <mxCell id="uLzzSYT0SzyPOxnXmZJz-156" value="verify " style="endArrow=block;endFill=1;html=1;edgeStyle=orthogonalEdgeStyle;align=left;verticalAlign=top;rounded=0;entryX=0.442;entryY=0.796;entryDx=0;entryDy=0;entryPerimeter=0;" edge="1" parent="1" target="uLzzSYT0SzyPOxnXmZJz-114">
          <mxGeometry x="-0.2667" y="20" relative="1" as="geometry">
            <mxPoint x="380" y="1370" as="sourcePoint" />
            <mxPoint x="495" y="1370" as="targetPoint" />
            <mxPoint as="offset" />
          </mxGeometry>
        </mxCell>
        <mxCell id="uLzzSYT0SzyPOxnXmZJz-158" value="alt" style="shape=umlFrame;whiteSpace=wrap;html=1;pointerEvents=0;" vertex="1" parent="1">
          <mxGeometry x="40" y="1380" width="660" height="100" as="geometry" />
        </mxCell>
        <mxCell id="uLzzSYT0SzyPOxnXmZJz-159" value="If verified" style="text;html=1;align=center;verticalAlign=middle;resizable=0;points=[];autosize=1;strokeColor=none;fillColor=none;" vertex="1" parent="1">
          <mxGeometry x="40" y="1410" width="70" height="30" as="geometry" />
        </mxCell>
        <mxCell id="uLzzSYT0SzyPOxnXmZJz-160" value="else" style="text;html=1;align=center;verticalAlign=middle;resizable=0;points=[];autosize=1;strokeColor=none;fillColor=none;" vertex="1" parent="1">
          <mxGeometry x="48" y="1440" width="50" height="30" as="geometry" />
        </mxCell>
        <mxCell id="uLzzSYT0SzyPOxnXmZJz-161" value="" style="endArrow=none;dashed=1;html=1;rounded=0;exitX=-0.123;exitY=-0.172;exitDx=0;exitDy=0;exitPerimeter=0;entryX=0.993;entryY=0.533;entryDx=0;entryDy=0;entryPerimeter=0;" edge="1" parent="1" source="uLzzSYT0SzyPOxnXmZJz-160" target="uLzzSYT0SzyPOxnXmZJz-158">
          <mxGeometry width="50" height="50" relative="1" as="geometry">
            <mxPoint x="210" y="1500" as="sourcePoint" />
            <mxPoint x="260" y="1450" as="targetPoint" />
          </mxGeometry>
        </mxCell>
        <mxCell id="uLzzSYT0SzyPOxnXmZJz-162" value="" style="html=1;points=[[0,0,0,0,5],[0,1,0,0,-5],[1,0,0,0,5],[1,1,0,0,-5]];perimeter=orthogonalPerimeter;outlineConnect=0;targetShapes=umlLifeline;portConstraint=eastwest;newEdgeStyle={&quot;curved&quot;:0,&quot;rounded&quot;:0};" vertex="1" parent="1">
          <mxGeometry x="250" y="1195" width="10" height="25" as="geometry" />
        </mxCell>
        <mxCell id="uLzzSYT0SzyPOxnXmZJz-163" value="break" style="html=1;align=left;spacingLeft=2;endArrow=block;rounded=0;edgeStyle=orthogonalEdgeStyle;curved=0;rounded=0;" edge="1" target="uLzzSYT0SzyPOxnXmZJz-162" parent="1">
          <mxGeometry relative="1" as="geometry">
            <mxPoint x="255" y="1175" as="sourcePoint" />
            <Array as="points">
              <mxPoint x="285" y="1205" />
            </Array>
          </mxGeometry>
        </mxCell>
        <mxCell id="uLzzSYT0SzyPOxnXmZJz-165" value="req pay details" style="endArrow=block;endFill=1;html=1;edgeStyle=orthogonalEdgeStyle;align=left;verticalAlign=top;rounded=0;" edge="1" parent="1">
          <mxGeometry x="0.4783" y="-20" relative="1" as="geometry">
            <mxPoint x="244.99999999999955" y="1330" as="sourcePoint" />
            <mxPoint x="129.99999999999955" y="1330" as="targetPoint" />
            <mxPoint as="offset" />
          </mxGeometry>
        </mxCell>
        <mxCell id="uLzzSYT0SzyPOxnXmZJz-166" value="send info" style="html=1;verticalAlign=bottom;endArrow=open;dashed=1;endSize=8;curved=0;rounded=0;" edge="1" parent="1">
          <mxGeometry x="0.0435" relative="1" as="geometry">
            <mxPoint x="370" y="1410" as="sourcePoint" />
            <mxPoint x="255" y="1410" as="targetPoint" />
            <mxPoint as="offset" />
          </mxGeometry>
        </mxCell>
        <mxCell id="uLzzSYT0SzyPOxnXmZJz-167" value="success!!" style="html=1;verticalAlign=bottom;endArrow=open;dashed=1;endSize=8;curved=0;rounded=0;" edge="1" parent="1">
          <mxGeometry x="0.0435" relative="1" as="geometry">
            <mxPoint x="245" y="1420" as="sourcePoint" />
            <mxPoint x="130" y="1420" as="targetPoint" />
            <mxPoint as="offset" />
          </mxGeometry>
        </mxCell>
        <mxCell id="uLzzSYT0SzyPOxnXmZJz-168" value="register" style="html=1;verticalAlign=bottom;endArrow=open;dashed=1;endSize=8;curved=0;rounded=0;" edge="1" parent="1" source="uLzzSYT0SzyPOxnXmZJz-117">
          <mxGeometry x="0.0435" relative="1" as="geometry">
            <mxPoint x="495" y="1400" as="sourcePoint" />
            <mxPoint x="380" y="1400" as="targetPoint" />
            <mxPoint as="offset" />
          </mxGeometry>
        </mxCell>
        <mxCell id="uLzzSYT0SzyPOxnXmZJz-169" value="loop" style="html=1;verticalAlign=bottom;endArrow=open;dashed=1;endSize=8;curved=0;rounded=0;" edge="1" parent="1">
          <mxGeometry x="0.0435" relative="1" as="geometry">
            <mxPoint x="369" y="1470" as="sourcePoint" />
            <mxPoint x="254" y="1470" as="targetPoint" />
            <mxPoint as="offset" />
          </mxGeometry>
        </mxCell>
        <mxCell id="uLzzSYT0SzyPOxnXmZJz-170" value=": CarOwner" style="shape=umlLifeline;perimeter=lifelinePerimeter;whiteSpace=wrap;html=1;container=1;dropTarget=0;collapsible=0;recursiveResize=0;outlineConnect=0;portConstraint=eastwest;newEdgeStyle={&quot;curved&quot;:0,&quot;rounded&quot;:0};" vertex="1" parent="1">
          <mxGeometry x="450" y="870" width="100" height="630" as="geometry" />
        </mxCell>
        <mxCell id="uLzzSYT0SzyPOxnXmZJz-171" value="" style="html=1;points=[[0,0,0,0,5],[0,1,0,0,-5],[1,0,0,0,5],[1,1,0,0,-5]];perimeter=orthogonalPerimeter;outlineConnect=0;targetShapes=umlLifeline;portConstraint=eastwest;newEdgeStyle={&quot;curved&quot;:0,&quot;rounded&quot;:0};" vertex="1" parent="uLzzSYT0SzyPOxnXmZJz-170">
          <mxGeometry x="45" y="540" width="10" height="20" as="geometry" />
        </mxCell>
        <mxCell id="uLzzSYT0SzyPOxnXmZJz-172" value="inform owner" style="endArrow=block;endFill=1;html=1;edgeStyle=orthogonalEdgeStyle;align=left;verticalAlign=top;rounded=0;" edge="1" parent="1">
          <mxGeometry x="-0.6522" y="20" relative="1" as="geometry">
            <mxPoint x="380" y="1420" as="sourcePoint" />
            <mxPoint x="495" y="1420" as="targetPoint" />
            <mxPoint as="offset" />
          </mxGeometry>
        </mxCell>
        <mxCell id="uLzzSYT0SzyPOxnXmZJz-173" value="reject" style="html=1;verticalAlign=bottom;endArrow=open;dashed=1;endSize=8;curved=0;rounded=0;" edge="1" parent="1">
          <mxGeometry x="0.0435" relative="1" as="geometry">
            <mxPoint x="625" y="1460" as="sourcePoint" />
            <mxPoint x="380" y="1460" as="targetPoint" />
            <mxPoint as="offset" />
          </mxGeometry>
        </mxCell>
        <mxCell id="uLzzSYT0SzyPOxnXmZJz-178" value="Passenger" style="html=1;whiteSpace=wrap;" vertex="1" parent="1">
          <mxGeometry x="98" y="70" width="110" height="90" as="geometry" />
        </mxCell>
        <mxCell id="uLzzSYT0SzyPOxnXmZJz-186" value="Rate" style="html=1;align=center;verticalAlign=top;rounded=1;absoluteArcSize=1;arcSize=10;dashed=0;whiteSpace=wrap;" vertex="1" parent="1">
          <mxGeometry x="690" y="140" width="80" height="40" as="geometry" />
        </mxCell>
        <mxCell id="uLzzSYT0SzyPOxnXmZJz-200" style="edgeStyle=orthogonalEdgeStyle;rounded=0;orthogonalLoop=1;jettySize=auto;html=1;entryX=0.5;entryY=0;entryDx=0;entryDy=0;" edge="1" parent="1" source="uLzzSYT0SzyPOxnXmZJz-186" target="uLzzSYT0SzyPOxnXmZJz-209">
          <mxGeometry relative="1" as="geometry">
            <Array as="points">
              <mxPoint x="730" y="210" />
              <mxPoint x="635" y="210" />
            </Array>
          </mxGeometry>
        </mxCell>
        <mxCell id="uLzzSYT0SzyPOxnXmZJz-207" style="edgeStyle=orthogonalEdgeStyle;rounded=0;orthogonalLoop=1;jettySize=auto;html=1;entryX=0;entryY=0.5;entryDx=0;entryDy=0;" edge="1" parent="1" source="uLzzSYT0SzyPOxnXmZJz-203" target="uLzzSYT0SzyPOxnXmZJz-186">
          <mxGeometry relative="1" as="geometry" />
        </mxCell>
        <mxCell id="uLzzSYT0SzyPOxnXmZJz-211" style="edgeStyle=orthogonalEdgeStyle;rounded=0;orthogonalLoop=1;jettySize=auto;html=1;exitX=1;exitY=0;exitDx=0;exitDy=0;entryX=0.5;entryY=1;entryDx=0;entryDy=0;" edge="1" parent="1" source="uLzzSYT0SzyPOxnXmZJz-209" target="uLzzSYT0SzyPOxnXmZJz-175">
          <mxGeometry relative="1" as="geometry">
            <Array as="points">
              <mxPoint x="642" y="230" />
              <mxPoint x="775" y="230" />
            </Array>
          </mxGeometry>
        </mxCell>
        <mxCell id="uLzzSYT0SzyPOxnXmZJz-213" style="edgeStyle=orthogonalEdgeStyle;rounded=0;orthogonalLoop=1;jettySize=auto;html=1;" edge="1" parent="1" source="uLzzSYT0SzyPOxnXmZJz-209" target="uLzzSYT0SzyPOxnXmZJz-184">
          <mxGeometry relative="1" as="geometry" />
        </mxCell>
        <mxCell id="uLzzSYT0SzyPOxnXmZJz-209" value="" style="rhombus;" vertex="1" parent="1">
          <mxGeometry x="620" y="273" width="30" height="30" as="geometry" />
        </mxCell>
      </root>
    </mxGraphModel>
  </diagram>
</mxfile>
